<svg width="41" height="40" viewBox="0 0 41 40" fill="none" xmlns="http://www.w3.org/2000/svg">
<g filter="url(#filter0_d_153_5385)">
<mask id="path-1-outside-1_153_5385" maskUnits="userSpaceOnUse" x="-1.81266" y="-3.48731" width="43.8427" height="45.214" fill="black">
<rect fill="white" x="-1.81266" y="-3.48731" width="43.8427" height="45.214"/>
<path fill-rule="evenodd" clip-rule="evenodd" d="M21.8095 5.58825C22.1177 4.51376 23.2385 3.89249 24.3129 4.20059C25.3874 4.50869 26.0087 5.62951 25.7006 6.70399L22.9429 16.3211L32.9424 13.9078C34.0149 13.6489 35.1073 14.3053 35.3824 15.3737C35.6574 16.4422 35.0109 17.5182 33.9384 17.7771L24.2545 20.1143L31.2284 27.228C32.0008 28.0159 31.9788 29.271 31.1794 30.0313C30.3799 30.7917 29.1057 30.7694 28.3333 29.9816L21.1322 22.636L18.4104 32.1281C18.1023 33.2026 16.9814 33.8239 15.907 33.5158C14.8325 33.2077 14.2112 32.0869 14.5193 31.0124L17.1528 21.8283L7.78453 24.0893C6.71202 24.3481 5.61961 23.6918 5.34457 22.6233C5.06954 21.5548 5.71603 20.4788 6.78854 20.22L16.4724 17.8828L9.49856 10.7691C8.72618 9.9812 8.74813 8.72611 9.54758 7.96573C10.347 7.20535 11.6212 7.22764 12.3936 8.0155L19.1402 14.8974L21.8095 5.58825Z"/>
</mask>
<path fill-rule="evenodd" clip-rule="evenodd" d="M21.8095 5.58825C22.1177 4.51376 23.2385 3.89249 24.3129 4.20059C25.3874 4.50869 26.0087 5.62951 25.7006 6.70399L22.9429 16.3211L32.9424 13.9078C34.0149 13.6489 35.1073 14.3053 35.3824 15.3737C35.6574 16.4422 35.0109 17.5182 33.9384 17.7771L24.2545 20.1143L31.2284 27.228C32.0008 28.0159 31.9788 29.271 31.1794 30.0313C30.3799 30.7917 29.1057 30.7694 28.3333 29.9816L21.1322 22.636L18.4104 32.1281C18.1023 33.2026 16.9814 33.8239 15.907 33.5158C14.8325 33.2077 14.2112 32.0869 14.5193 31.0124L17.1528 21.8283L7.78453 24.0893C6.71202 24.3481 5.61961 23.6918 5.34457 22.6233C5.06954 21.5548 5.71603 20.4788 6.78854 20.22L16.4724 17.8828L9.49856 10.7691C8.72618 9.9812 8.74813 8.72611 9.54758 7.96573C10.347 7.20535 11.6212 7.22764 12.3936 8.0155L19.1402 14.8974L21.8095 5.58825Z" fill="#FF0000"/>
<path d="M22.9429 16.3211L20.0592 15.4942L18.6393 20.446L23.6468 19.2374L22.9429 16.3211ZM32.9424 13.9078L33.6463 16.824L33.6463 16.824L32.9424 13.9078ZM35.3824 15.3737L38.2877 14.6259L38.2877 14.6259L35.3824 15.3737ZM33.9384 17.7771L33.2346 14.8608L33.2346 14.8608L33.9384 17.7771ZM24.2545 20.1143L23.5507 17.198L18.4106 18.4386L22.1123 22.2144L24.2545 20.1143ZM31.2284 27.228L29.0861 29.3282L29.0861 29.3282L31.2284 27.228ZM31.1794 30.0313L33.2469 32.2051L33.2469 32.2051L31.1794 30.0313ZM28.3333 29.9816L30.4756 27.8814L30.4756 27.8814L28.3333 29.9816ZM21.1322 22.636L23.2745 20.5358L19.6683 16.8573L18.2484 21.8091L21.1322 22.636ZM17.1528 21.8283L20.0366 22.6552L21.4565 17.7034L16.449 18.912L17.1528 21.8283ZM7.78453 24.0893L7.0807 21.173L7.0807 21.173L7.78453 24.0893ZM5.34457 22.6233L2.43928 23.3712L2.43928 23.3712L5.34457 22.6233ZM6.78854 20.22L6.08471 17.3037L6.08471 17.3037L6.78854 20.22ZM16.4724 17.8828L17.1763 20.7991L22.3163 19.5585L18.6147 15.7826L16.4724 17.8828ZM9.49856 10.7691L11.6408 8.66891L11.6408 8.66891L9.49856 10.7691ZM9.54758 7.96573L7.48005 5.79195L9.54758 7.96573ZM12.3936 8.0155L14.5359 5.91534L12.3936 8.0155ZM19.1402 14.8974L16.9979 16.9975L20.6041 20.676L22.024 15.7243L19.1402 14.8974ZM25.1399 1.31681C22.4727 0.552011 19.6906 2.09417 18.9258 4.76133L24.6933 6.41516C24.5447 6.93335 24.0042 7.23296 23.486 7.08438L25.1399 1.31681ZM28.5844 7.5309C29.3492 4.86375 27.807 2.0816 25.1399 1.31681L23.486 7.08438C22.9679 6.93579 22.6682 6.39527 22.8168 5.87708L28.5844 7.5309ZM25.8267 17.148L28.5844 7.5309L22.8168 5.87708L20.0592 15.4942L25.8267 17.148ZM32.2386 10.9915L22.2391 13.4049L23.6468 19.2374L33.6463 16.824L32.2386 10.9915ZM38.2877 14.6259C37.604 11.97 34.9045 10.3481 32.2386 10.9915L33.6463 16.824C33.1254 16.9498 32.6107 16.6405 32.4771 16.1216L38.2877 14.6259ZM34.6422 20.6934C37.3426 20.0416 38.9801 17.3161 38.2877 14.6259L32.4771 16.1216C32.3347 15.5683 32.6792 14.9948 33.2346 14.8608L34.6422 20.6934ZM24.9584 23.0305L34.6422 20.6934L33.2346 14.8608L23.5507 17.198L24.9584 23.0305ZM33.3707 25.1278L26.3968 18.0141L22.1123 22.2144L29.0861 29.3282L33.3707 25.1278ZM33.2469 32.2051C35.2598 30.2906 35.3154 27.1115 33.3707 25.1278L29.0861 29.3282C28.6862 28.9202 28.6979 28.2513 29.1119 27.8576L33.2469 32.2051ZM26.1911 32.0817C28.111 34.0401 31.2597 34.0952 33.2469 32.2051L29.1119 27.8575C29.5001 27.4883 30.1005 27.4987 30.4756 27.8814L26.1911 32.0817ZM18.9899 24.7361L26.1911 32.0817L30.4756 27.8814L23.2745 20.5358L18.9899 24.7361ZM21.2941 32.955L24.016 23.4629L18.2484 21.8091L15.5266 31.3012L21.2941 32.955ZM15.08 36.3996C17.7472 37.1643 20.5293 35.6222 21.2941 32.955L15.5266 31.3012C15.6752 30.783 16.2157 30.4834 16.7339 30.632L15.08 36.3996ZM11.6355 30.1855C10.8707 32.8526 12.4129 35.6348 15.08 36.3996L16.7339 30.632C17.2521 30.7806 17.5517 31.3211 17.4031 31.8393L11.6355 30.1855ZM14.269 21.0014L11.6355 30.1855L17.4031 31.8393L20.0366 22.6552L14.269 21.0014ZM8.48837 27.0056L17.8566 24.7445L16.449 18.912L7.0807 21.173L8.48837 27.0056ZM2.43928 23.3712C3.12293 26.0271 5.82244 27.649 8.48837 27.0056L7.0807 21.173C7.6016 21.0473 8.11629 21.3565 8.24987 21.8755L2.43928 23.3712ZM6.08471 17.3037C3.38434 17.9554 1.7468 20.681 2.43928 23.3712L8.24987 21.8755C8.39228 22.4287 8.04772 23.0022 7.49238 23.1362L6.08471 17.3037ZM15.7686 14.9665L6.08471 17.3037L7.49238 23.1362L17.1763 20.7991L15.7686 14.9665ZM7.35628 12.8692L14.3302 19.9829L18.6147 15.7826L11.6408 8.66891L7.35628 12.8692ZM7.48005 5.79195C5.4672 7.70642 5.4116 10.8856 7.35628 12.8692L11.6408 8.66891C12.0408 9.07686 12.0291 9.74579 11.6151 10.1395L7.48005 5.79195ZM14.5359 5.91534C12.616 3.95697 9.46723 3.9019 7.48005 5.79195L11.6151 10.1395C11.2268 10.5088 10.6265 10.4983 10.2514 10.1157L14.5359 5.91534ZM21.2825 12.7972L14.5359 5.91534L10.2514 10.1157L16.9979 16.9975L21.2825 12.7972ZM18.9258 4.76133L16.2564 14.0705L22.024 15.7243L24.6933 6.41516L18.9258 4.76133Z" fill="white" mask="url(#path-1-outside-1_153_5385)"/>
</g>
<defs>
<filter id="filter0_d_153_5385" x="0.280518" y="0.121094" width="40.166" height="39.4746" filterUnits="userSpaceOnUse" color-interpolation-filters="sRGB">
<feFlood flood-opacity="0" result="BackgroundImageFix"/>
<feColorMatrix in="SourceAlpha" type="matrix" values="0 0 0 0 0 0 0 0 0 0 0 0 0 0 0 0 0 0 127 0" result="hardAlpha"/>
<feOffset dy="1"/>
<feGaussianBlur stdDeviation="1"/>
<feComposite in2="hardAlpha" operator="out"/>
<feColorMatrix type="matrix" values="0 0 0 0 0 0 0 0 0 0 0 0 0 0 0 0 0 0 0.25 0"/>
<feBlend mode="normal" in2="BackgroundImageFix" result="effect1_dropShadow_153_5385"/>
<feBlend mode="normal" in="SourceGraphic" in2="effect1_dropShadow_153_5385" result="shape"/>
</filter>
</defs>
</svg>
