<svg width="118" height="27" viewBox="0 0 118 27" fill="none" xmlns="http://www.w3.org/2000/svg">
<rect x="0.75" y="1.12305" width="116.5" height="24.5" rx="12.25" stroke="black" stroke-width="1.5"/>
<path d="M8.32 20.373V6.37305H10.96V11.933H11.32L15.86 6.37305H19.24L13.4 13.273L19.44 20.373H15.96L11.32 14.693H10.96V20.373H8.32ZM20.2195 20.373V10.453H22.6995V11.753H23.0595C23.2195 11.4064 23.5195 11.0797 23.9595 10.773C24.3995 10.453 25.0662 10.293 25.9595 10.293C26.7329 10.293 27.4062 10.473 27.9795 10.833C28.5662 11.1797 29.0195 11.6664 29.3395 12.293C29.6595 12.9064 29.8195 13.6264 29.8195 14.453V20.373H27.2995V14.653C27.2995 13.9064 27.1129 13.3464 26.7395 12.973C26.3795 12.5997 25.8595 12.413 25.1795 12.413C24.4062 12.413 23.8062 12.673 23.3795 13.193C22.9529 13.6997 22.7395 14.413 22.7395 15.333V20.373H20.2195ZM36.5638 20.653C35.5771 20.653 34.6904 20.453 33.9038 20.053C33.1171 19.653 32.4971 19.073 32.0438 18.313C31.5904 17.553 31.3638 16.6397 31.3638 15.573V15.253C31.3638 14.1864 31.5904 13.273 32.0438 12.513C32.4971 11.753 33.1171 11.173 33.9038 10.773C34.6904 10.373 35.5771 10.173 36.5638 10.173C37.5504 10.173 38.4371 10.373 39.2238 10.773C40.0104 11.173 40.6304 11.753 41.0838 12.513C41.5371 13.273 41.7638 14.1864 41.7638 15.253V15.573C41.7638 16.6397 41.5371 17.553 41.0838 18.313C40.6304 19.073 40.0104 19.653 39.2238 20.053C38.4371 20.453 37.5504 20.653 36.5638 20.653ZM36.5638 18.413C37.3371 18.413 37.9771 18.1664 38.4838 17.673C38.9904 17.1664 39.2438 16.4464 39.2438 15.513V15.313C39.2438 14.3797 38.9904 13.6664 38.4838 13.173C37.9904 12.6664 37.3504 12.413 36.5638 12.413C35.7904 12.413 35.1504 12.6664 34.6438 13.173C34.1371 13.6664 33.8838 14.3797 33.8838 15.313V15.513C33.8838 16.4464 34.1371 17.1664 34.6438 17.673C35.1504 18.1664 35.7904 18.413 36.5638 18.413ZM44.1508 20.373L42.7508 10.453H45.2508L46.1308 18.673H46.4908L47.7708 10.453H51.8108L53.0908 18.673H53.4508L54.3308 10.453H56.8308L55.4308 20.373H51.2508L49.9708 12.153H49.6108L48.3308 20.373H44.1508ZM62.6325 20.373V6.37305H67.5325L69.9525 18.573H70.3125L72.7325 6.37305H77.6325V20.373H75.0725V8.31305H74.7125L72.3125 20.373H67.9525L65.5525 8.31305H65.1925V20.373H62.6325ZM84.3692 20.653C83.3826 20.653 82.4959 20.453 81.7092 20.053C80.9226 19.653 80.3026 19.073 79.8492 18.313C79.3959 17.553 79.1692 16.6397 79.1692 15.573V15.253C79.1692 14.1864 79.3959 13.273 79.8492 12.513C80.3026 11.753 80.9226 11.173 81.7092 10.773C82.4959 10.373 83.3826 10.173 84.3692 10.173C85.3559 10.173 86.2426 10.373 87.0292 10.773C87.8159 11.173 88.4359 11.753 88.8892 12.513C89.3426 13.273 89.5692 14.1864 89.5692 15.253V15.573C89.5692 16.6397 89.3426 17.553 88.8892 18.313C88.4359 19.073 87.8159 19.653 87.0292 20.053C86.2426 20.453 85.3559 20.653 84.3692 20.653ZM84.3692 18.413C85.1426 18.413 85.7826 18.1664 86.2892 17.673C86.7959 17.1664 87.0492 16.4464 87.0492 15.513V15.313C87.0492 14.3797 86.7959 13.6664 86.2892 13.173C85.7959 12.6664 85.1559 12.413 84.3692 12.413C83.5959 12.413 82.9559 12.6664 82.4492 13.173C81.9426 13.6664 81.6892 14.3797 81.6892 15.313V15.513C81.6892 16.4464 81.9426 17.1664 82.4492 17.673C82.9559 18.1664 83.5959 18.413 84.3692 18.413ZM91.1953 20.373V10.453H93.6753V11.573H94.0353C94.182 11.173 94.422 10.8797 94.7553 10.693C95.102 10.5064 95.502 10.413 95.9553 10.413H97.1553V12.653H95.9153C95.2753 12.653 94.7486 12.8264 94.3353 13.173C93.922 13.5064 93.7153 14.0264 93.7153 14.733V20.373H91.1953ZM102.593 20.653C101.607 20.653 100.733 20.4464 99.9734 20.033C99.2268 19.6064 98.6401 19.013 98.2134 18.253C97.8001 17.4797 97.5934 16.573 97.5934 15.533V15.293C97.5934 14.253 97.8001 13.353 98.2134 12.593C98.6268 11.8197 99.2068 11.2264 99.9534 10.813C100.7 10.3864 101.567 10.173 102.553 10.173C103.527 10.173 104.373 10.393 105.093 10.833C105.813 11.2597 106.373 11.8597 106.773 12.633C107.173 13.393 107.373 14.2797 107.373 15.293V16.153H100.153C100.18 16.833 100.433 17.3864 100.913 17.813C101.393 18.2397 101.98 18.453 102.673 18.453C103.38 18.453 103.9 18.2997 104.233 17.993C104.567 17.6864 104.82 17.3464 104.993 16.973L107.053 18.053C106.867 18.3997 106.593 18.7797 106.233 19.193C105.887 19.593 105.42 19.9397 104.833 20.233C104.247 20.513 103.5 20.653 102.593 20.653ZM100.173 14.273H104.813C104.76 13.6997 104.527 13.2397 104.113 12.893C103.713 12.5464 103.187 12.373 102.533 12.373C101.853 12.373 101.313 12.5464 100.913 12.893C100.513 13.2397 100.267 13.6997 100.173 14.273Z" fill="url(#paint0_linear_187_12322)"/>
<path d="M8.32 20.373V6.37305H10.96V11.933H11.32L15.86 6.37305H19.24L13.4 13.273L19.44 20.373H15.96L11.32 14.693H10.96V20.373H8.32ZM20.2195 20.373V10.453H22.6995V11.753H23.0595C23.2195 11.4064 23.5195 11.0797 23.9595 10.773C24.3995 10.453 25.0662 10.293 25.9595 10.293C26.7329 10.293 27.4062 10.473 27.9795 10.833C28.5662 11.1797 29.0195 11.6664 29.3395 12.293C29.6595 12.9064 29.8195 13.6264 29.8195 14.453V20.373H27.2995V14.653C27.2995 13.9064 27.1129 13.3464 26.7395 12.973C26.3795 12.5997 25.8595 12.413 25.1795 12.413C24.4062 12.413 23.8062 12.673 23.3795 13.193C22.9529 13.6997 22.7395 14.413 22.7395 15.333V20.373H20.2195ZM36.5638 20.653C35.5771 20.653 34.6904 20.453 33.9038 20.053C33.1171 19.653 32.4971 19.073 32.0438 18.313C31.5904 17.553 31.3638 16.6397 31.3638 15.573V15.253C31.3638 14.1864 31.5904 13.273 32.0438 12.513C32.4971 11.753 33.1171 11.173 33.9038 10.773C34.6904 10.373 35.5771 10.173 36.5638 10.173C37.5504 10.173 38.4371 10.373 39.2238 10.773C40.0104 11.173 40.6304 11.753 41.0838 12.513C41.5371 13.273 41.7638 14.1864 41.7638 15.253V15.573C41.7638 16.6397 41.5371 17.553 41.0838 18.313C40.6304 19.073 40.0104 19.653 39.2238 20.053C38.4371 20.453 37.5504 20.653 36.5638 20.653ZM36.5638 18.413C37.3371 18.413 37.9771 18.1664 38.4838 17.673C38.9904 17.1664 39.2438 16.4464 39.2438 15.513V15.313C39.2438 14.3797 38.9904 13.6664 38.4838 13.173C37.9904 12.6664 37.3504 12.413 36.5638 12.413C35.7904 12.413 35.1504 12.6664 34.6438 13.173C34.1371 13.6664 33.8838 14.3797 33.8838 15.313V15.513C33.8838 16.4464 34.1371 17.1664 34.6438 17.673C35.1504 18.1664 35.7904 18.413 36.5638 18.413ZM44.1508 20.373L42.7508 10.453H45.2508L46.1308 18.673H46.4908L47.7708 10.453H51.8108L53.0908 18.673H53.4508L54.3308 10.453H56.8308L55.4308 20.373H51.2508L49.9708 12.153H49.6108L48.3308 20.373H44.1508ZM62.6325 20.373V6.37305H67.5325L69.9525 18.573H70.3125L72.7325 6.37305H77.6325V20.373H75.0725V8.31305H74.7125L72.3125 20.373H67.9525L65.5525 8.31305H65.1925V20.373H62.6325ZM84.3692 20.653C83.3826 20.653 82.4959 20.453 81.7092 20.053C80.9226 19.653 80.3026 19.073 79.8492 18.313C79.3959 17.553 79.1692 16.6397 79.1692 15.573V15.253C79.1692 14.1864 79.3959 13.273 79.8492 12.513C80.3026 11.753 80.9226 11.173 81.7092 10.773C82.4959 10.373 83.3826 10.173 84.3692 10.173C85.3559 10.173 86.2426 10.373 87.0292 10.773C87.8159 11.173 88.4359 11.753 88.8892 12.513C89.3426 13.273 89.5692 14.1864 89.5692 15.253V15.573C89.5692 16.6397 89.3426 17.553 88.8892 18.313C88.4359 19.073 87.8159 19.653 87.0292 20.053C86.2426 20.453 85.3559 20.653 84.3692 20.653ZM84.3692 18.413C85.1426 18.413 85.7826 18.1664 86.2892 17.673C86.7959 17.1664 87.0492 16.4464 87.0492 15.513V15.313C87.0492 14.3797 86.7959 13.6664 86.2892 13.173C85.7959 12.6664 85.1559 12.413 84.3692 12.413C83.5959 12.413 82.9559 12.6664 82.4492 13.173C81.9426 13.6664 81.6892 14.3797 81.6892 15.313V15.513C81.6892 16.4464 81.9426 17.1664 82.4492 17.673C82.9559 18.1664 83.5959 18.413 84.3692 18.413ZM91.1953 20.373V10.453H93.6753V11.573H94.0353C94.182 11.173 94.422 10.8797 94.7553 10.693C95.102 10.5064 95.502 10.413 95.9553 10.413H97.1553V12.653H95.9153C95.2753 12.653 94.7486 12.8264 94.3353 13.173C93.922 13.5064 93.7153 14.0264 93.7153 14.733V20.373H91.1953ZM102.593 20.653C101.607 20.653 100.733 20.4464 99.9734 20.033C99.2268 19.6064 98.6401 19.013 98.2134 18.253C97.8001 17.4797 97.5934 16.573 97.5934 15.533V15.293C97.5934 14.253 97.8001 13.353 98.2134 12.593C98.6268 11.8197 99.2068 11.2264 99.9534 10.813C100.7 10.3864 101.567 10.173 102.553 10.173C103.527 10.173 104.373 10.393 105.093 10.833C105.813 11.2597 106.373 11.8597 106.773 12.633C107.173 13.393 107.373 14.2797 107.373 15.293V16.153H100.153C100.18 16.833 100.433 17.3864 100.913 17.813C101.393 18.2397 101.98 18.453 102.673 18.453C103.38 18.453 103.9 18.2997 104.233 17.993C104.567 17.6864 104.82 17.3464 104.993 16.973L107.053 18.053C106.867 18.3997 106.593 18.7797 106.233 19.193C105.887 19.593 105.42 19.9397 104.833 20.233C104.247 20.513 103.5 20.653 102.593 20.653ZM100.173 14.273H104.813C104.76 13.6997 104.527 13.2397 104.113 12.893C103.713 12.5464 103.187 12.373 102.533 12.373C101.853 12.373 101.313 12.5464 100.913 12.893C100.513 13.2397 100.267 13.6997 100.173 14.273Z" fill="url(#paint1_linear_187_12322)"/>
<defs>
<linearGradient id="paint0_linear_187_12322" x1="-10.6891" y1="-7.15936" x2="196.083" y2="-4.47921" gradientUnits="userSpaceOnUse">
<stop stop-color="#D80000"/>
<stop offset="0.244792" stop-color="#FFE457"/>
<stop offset="1" stop-color="#FF007A"/>
</linearGradient>
<linearGradient id="paint1_linear_187_12322" x1="121.596" y1="17.3709" x2="52.6643" y2="-36.5551" gradientUnits="userSpaceOnUse">
<stop stop-color="#3784FF"/>
<stop offset="0.177083" stop-color="#BC2DFF"/>
<stop offset="0.354876" stop-color="#FF8412"/>
<stop offset="0.56079" stop-color="#FFD850"/>
<stop offset="0.760524" stop-color="#79FF9F"/>
<stop offset="1" stop-color="#2DCDFF"/>
</linearGradient>
</defs>
</svg>
